<svg width="20" height="20" viewBox="0 0 20 20" fill="none" xmlns="http://www.w3.org/2000/svg">
<path d="M2.34201 15.68C1.87525 16.1467 1.87525 16.9035 2.34201 17.3703C2.80877 17.837 3.56553 17.837 4.03229 17.3703L9.56158 11.841L15.0909 17.3703C15.5576 17.837 16.3144 17.837 16.7811 17.3703C17.2479 16.9035 17.2479 16.1467 16.7811 15.68L11.2519 10.1507L16.7811 4.6214C17.2479 4.15464 17.2479 3.39788 16.7811 2.93112C16.3144 2.46437 15.5576 2.46437 15.0909 2.93112L9.56158 8.46042L4.03229 2.93112C3.56553 2.46437 2.80877 2.46437 2.34201 2.93112C1.87525 3.39788 1.87525 4.15464 2.34201 4.6214L7.8713 10.1507L2.34201 15.68Z" fill="white"/>
</svg>
